<mxfile host="app.diagrams.net" agent="Mozilla/5.0 (Windows NT 10.0; Win64; x64) AppleWebKit/537.36 (KHTML, like Gecko) Chrome/132.0.0.0 Safari/537.36 OPR/117.0.0.0" version="26.2.9">
  <diagram name="Página-1" id="V0SJuiU-4XR13Nc1XHSH">
    <mxGraphModel dx="833" dy="1622" grid="1" gridSize="10" guides="1" tooltips="1" connect="1" arrows="1" fold="1" page="1" pageScale="1" pageWidth="827" pageHeight="1169" math="0" shadow="0">
      <root>
        <mxCell id="0" />
        <mxCell id="1" parent="0" />
        <mxCell id="ulLsxPjQuRTpucMJsiVC-1" value="" style="edgeStyle=orthogonalEdgeStyle;rounded=0;orthogonalLoop=1;jettySize=auto;html=1;" edge="1" parent="1" source="ulLsxPjQuRTpucMJsiVC-2" target="ulLsxPjQuRTpucMJsiVC-4">
          <mxGeometry relative="1" as="geometry" />
        </mxCell>
        <mxCell id="ulLsxPjQuRTpucMJsiVC-2" value="Início" style="rounded=1;whiteSpace=wrap;html=1;fontSize=12;glass=0;strokeWidth=1;shadow=0;" vertex="1" parent="1">
          <mxGeometry x="425" y="-1060" width="60" height="40" as="geometry" />
        </mxCell>
        <mxCell id="ulLsxPjQuRTpucMJsiVC-23" value="" style="edgeStyle=orthogonalEdgeStyle;rounded=0;orthogonalLoop=1;jettySize=auto;html=1;" edge="1" parent="1" source="ulLsxPjQuRTpucMJsiVC-4" target="ulLsxPjQuRTpucMJsiVC-9">
          <mxGeometry relative="1" as="geometry" />
        </mxCell>
        <mxCell id="ulLsxPjQuRTpucMJsiVC-4" value="i = 25" style="rounded=0;whiteSpace=wrap;html=1;" vertex="1" parent="1">
          <mxGeometry x="395" y="-940" width="120" height="60" as="geometry" />
        </mxCell>
        <mxCell id="ulLsxPjQuRTpucMJsiVC-5" value="" style="edgeStyle=orthogonalEdgeStyle;rounded=0;orthogonalLoop=1;jettySize=auto;html=1;" edge="1" parent="1" source="ulLsxPjQuRTpucMJsiVC-9">
          <mxGeometry relative="1" as="geometry">
            <mxPoint x="455" y="-670" as="targetPoint" />
          </mxGeometry>
        </mxCell>
        <mxCell id="ulLsxPjQuRTpucMJsiVC-6" value="Não" style="edgeLabel;html=1;align=center;verticalAlign=middle;resizable=0;points=[];" vertex="1" connectable="0" parent="ulLsxPjQuRTpucMJsiVC-5">
          <mxGeometry x="-0.64" y="-1" relative="1" as="geometry">
            <mxPoint as="offset" />
          </mxGeometry>
        </mxCell>
        <mxCell id="ulLsxPjQuRTpucMJsiVC-7" style="edgeStyle=orthogonalEdgeStyle;rounded=0;orthogonalLoop=1;jettySize=auto;html=1;entryX=0;entryY=0.5;entryDx=0;entryDy=0;" edge="1" parent="1" source="ulLsxPjQuRTpucMJsiVC-9">
          <mxGeometry relative="1" as="geometry">
            <mxPoint x="660" y="-760" as="targetPoint" />
          </mxGeometry>
        </mxCell>
        <mxCell id="ulLsxPjQuRTpucMJsiVC-8" value="Sim" style="edgeLabel;html=1;align=center;verticalAlign=middle;resizable=0;points=[];" vertex="1" connectable="0" parent="ulLsxPjQuRTpucMJsiVC-7">
          <mxGeometry x="-0.0312" relative="1" as="geometry">
            <mxPoint as="offset" />
          </mxGeometry>
        </mxCell>
        <mxCell id="ulLsxPjQuRTpucMJsiVC-9" value="i&amp;nbsp; &amp;gt; 201?" style="shape=hexagon;perimeter=hexagonPerimeter2;whiteSpace=wrap;html=1;fixedSize=1;" vertex="1" parent="1">
          <mxGeometry x="395" y="-800" width="120" height="80" as="geometry" />
        </mxCell>
        <mxCell id="ulLsxPjQuRTpucMJsiVC-33" style="edgeStyle=orthogonalEdgeStyle;rounded=0;orthogonalLoop=1;jettySize=auto;html=1;entryX=0;entryY=0.5;entryDx=0;entryDy=0;" edge="1" parent="1" source="ulLsxPjQuRTpucMJsiVC-15" target="ulLsxPjQuRTpucMJsiVC-9">
          <mxGeometry relative="1" as="geometry">
            <Array as="points">
              <mxPoint x="200" y="-400" />
              <mxPoint x="200" y="-760" />
            </Array>
          </mxGeometry>
        </mxCell>
        <mxCell id="ulLsxPjQuRTpucMJsiVC-15" value="i = i + 1" style="whiteSpace=wrap;html=1;" vertex="1" parent="1">
          <mxGeometry x="300" y="-430" width="120" height="60" as="geometry" />
        </mxCell>
        <mxCell id="ulLsxPjQuRTpucMJsiVC-20" value="Fim" style="rounded=1;whiteSpace=wrap;html=1;fontSize=12;glass=0;strokeWidth=1;shadow=0;" vertex="1" parent="1">
          <mxGeometry x="660" y="-780" width="60" height="40" as="geometry" />
        </mxCell>
        <mxCell id="ulLsxPjQuRTpucMJsiVC-30" style="edgeStyle=orthogonalEdgeStyle;rounded=0;orthogonalLoop=1;jettySize=auto;html=1;entryX=0;entryY=0.5;entryDx=0;entryDy=0;" edge="1" parent="1" source="ulLsxPjQuRTpucMJsiVC-24" target="ulLsxPjQuRTpucMJsiVC-28">
          <mxGeometry relative="1" as="geometry">
            <Array as="points">
              <mxPoint x="280" y="-500" />
            </Array>
          </mxGeometry>
        </mxCell>
        <mxCell id="ulLsxPjQuRTpucMJsiVC-24" value="i" style="shape=display;whiteSpace=wrap;html=1;" vertex="1" parent="1">
          <mxGeometry x="240" y="-650" width="80" height="40" as="geometry" />
        </mxCell>
        <mxCell id="ulLsxPjQuRTpucMJsiVC-26" value="" style="edgeStyle=orthogonalEdgeStyle;rounded=0;orthogonalLoop=1;jettySize=auto;html=1;" edge="1" parent="1" source="ulLsxPjQuRTpucMJsiVC-25" target="ulLsxPjQuRTpucMJsiVC-24">
          <mxGeometry relative="1" as="geometry" />
        </mxCell>
        <mxCell id="ulLsxPjQuRTpucMJsiVC-27" value="Verdadeiro" style="edgeLabel;html=1;align=center;verticalAlign=middle;resizable=0;points=[];" vertex="1" connectable="0" parent="ulLsxPjQuRTpucMJsiVC-26">
          <mxGeometry x="-0.0316" y="-1" relative="1" as="geometry">
            <mxPoint as="offset" />
          </mxGeometry>
        </mxCell>
        <mxCell id="ulLsxPjQuRTpucMJsiVC-29" style="edgeStyle=orthogonalEdgeStyle;rounded=0;orthogonalLoop=1;jettySize=auto;html=1;entryX=1;entryY=0.5;entryDx=0;entryDy=0;" edge="1" parent="1" source="ulLsxPjQuRTpucMJsiVC-25" target="ulLsxPjQuRTpucMJsiVC-28">
          <mxGeometry relative="1" as="geometry">
            <Array as="points">
              <mxPoint x="455" y="-500" />
            </Array>
          </mxGeometry>
        </mxCell>
        <mxCell id="ulLsxPjQuRTpucMJsiVC-32" value="falso" style="edgeLabel;html=1;align=center;verticalAlign=middle;resizable=0;points=[];" vertex="1" connectable="0" parent="ulLsxPjQuRTpucMJsiVC-29">
          <mxGeometry x="-0.6" relative="1" as="geometry">
            <mxPoint as="offset" />
          </mxGeometry>
        </mxCell>
        <mxCell id="ulLsxPjQuRTpucMJsiVC-25" value="i % 2 = 0" style="rhombus;whiteSpace=wrap;html=1;" vertex="1" parent="1">
          <mxGeometry x="415" y="-670" width="80" height="80" as="geometry" />
        </mxCell>
        <mxCell id="ulLsxPjQuRTpucMJsiVC-31" value="" style="edgeStyle=orthogonalEdgeStyle;rounded=0;orthogonalLoop=1;jettySize=auto;html=1;" edge="1" parent="1" source="ulLsxPjQuRTpucMJsiVC-28" target="ulLsxPjQuRTpucMJsiVC-15">
          <mxGeometry relative="1" as="geometry" />
        </mxCell>
        <mxCell id="ulLsxPjQuRTpucMJsiVC-28" value="" style="ellipse;whiteSpace=wrap;html=1;aspect=fixed;" vertex="1" parent="1">
          <mxGeometry x="340" y="-520" width="40" height="40" as="geometry" />
        </mxCell>
      </root>
    </mxGraphModel>
  </diagram>
</mxfile>
